<?xml version="1.0" encoding="utf-8"?>
<!-- Generator: Adobe Illustrator 28.2.0, SVG Export Plug-In . SVG Version: 6.00 Build 0)  -->
<svg version="1.1" id="Layer_1" xmlns="http://www.w3.org/2000/svg" xmlns:xlink="http://www.w3.org/1999/xlink" x="0px" y="0px"
	 viewBox="0 0 274.7 412.7" style="enable-background:new 0 0 274.7 412.7;" xml:space="preserve">
<style type="text/css">
	.st0{fill:#8200AD;}
</style>
<path class="st0" d="M130.3,412.7c-37-67.7-74.7-135-110.7-203.2C-19.9,134.7,1.9,55.2,70.5,17.6c51.8-28.4,112-22,156.2,16.5
	c43.8,38.2,60.9,98.8,37.4,151.9c-19.5,44-44.9,85.4-67.7,127.9c-17.7,33-35.5,66-53.2,98.9L130.3,412.7L130.3,412.7z M135.4,69.8
	c-37,0.7-67.2,31.4-66.9,68.2c0.3,35.9,32.1,67.6,68,67.7c37.3,0.2,69.7-33.2,68.2-70.4C203.3,98,172.7,69.2,135.4,69.8z"/>
</svg>
